<svg xmlns="http://www.w3.org/2000/svg" width="15" height="17" viewBox="0 0 15 17">
  <g id="メモの無料アイコン" transform="translate(-32.764)">
    <path id="パス_20" data-name="パス 20" d="M33.473,127.754h1.779a.709.709,0,0,0,0-1.418H33.473a.709.709,0,0,0,0,1.418Z" transform="translate(0 -122.149)" fill="#4b4b4b"/>
    <path id="パス_21" data-name="パス 21" d="M70.2,0H60.184A1.58,1.58,0,0,0,58.6,1.571v1.9H59.91v-1.9a.274.274,0,0,1,.274-.271H70.2a1.206,1.206,0,0,1,.852.349,1.179,1.179,0,0,1,.353.843V14.509a1.178,1.178,0,0,1-.353.842,1.2,1.2,0,0,1-.852.349H60.184a.274.274,0,0,1-.274-.271v-1.9H58.6v1.9A1.58,1.58,0,0,0,60.184,17H70.2a2.505,2.505,0,0,0,2.519-2.491V2.491A2.505,2.505,0,0,0,70.2,0Z" transform="translate(-24.956)" fill="#4b4b4b"/>
    <rect id="長方形_116" data-name="長方形 116" width="1.327" height="4.471" transform="translate(33.64 6.264)" fill="#4b4b4b"/>
    <path id="パス_22" data-name="パス 22" d="M35.961,344.54a.709.709,0,0,0-.709-.709H33.473a.709.709,0,0,0,0,1.418h1.779A.709.709,0,0,0,35.961,344.54Z" transform="translate(0 -332.436)" fill="#4b4b4b"/>
    <rect id="長方形_117" data-name="長方形 117" width="5.97" height="0.995" transform="translate(38.039 4.528)" fill="#4b4b4b"/>
    <rect id="長方形_118" data-name="長方形 118" width="5.97" height="0.995" transform="translate(38.039 8.097)" fill="#4b4b4b"/>
    <rect id="長方形_119" data-name="長方形 119" width="3.648" height="0.995" transform="translate(38.055 11.665)" fill="#4b4b4b"/>
  </g>
</svg>
