<svg xmlns="http://www.w3.org/2000/svg" width="37" height="48" viewBox="0 0 37 48">
  <g id="グループ_52" data-name="グループ 52" transform="translate(-191 -826)">
    <g id="本棚の無料アイコン_1" data-name="本棚の無料アイコン 1" transform="translate(191 772.997)">
      <path id="パス_10" data-name="パス 10" d="M7.024,55.756H2.254A2.254,2.254,0,0,0,0,58.009V83.3a2.252,2.252,0,0,0,2.254,2.252h4.77A2.253,2.253,0,0,0,9.278,83.3V58.009A2.254,2.254,0,0,0,7.024,55.756ZM7.29,68.944h-5.3V67.62h5.3Zm0-3.973h-5.3V62.323h5.3Z" transform="translate(0 -2.549)" fill="#ced7d9"/>
      <path id="パス_11" data-name="パス 11" d="M150.4,55.756h-4.77a2.254,2.254,0,0,0-2.254,2.253V83.3a2.252,2.252,0,0,0,2.254,2.252h4.77a2.253,2.253,0,0,0,2.254-2.252V58.009A2.254,2.254,0,0,0,150.4,55.756Zm.266,13.188h-5.3V67.62h5.3Zm0-3.973h-5.3V62.323h5.3Z" transform="translate(-133.092 -2.549)" fill="#ced7d9"/>
      <path id="パス_12" data-name="パス 12" d="M298,78.519l-8.05-23.979a2.255,2.255,0,0,0-2.854-1.419l-4.522,1.516a2.252,2.252,0,0,0-1.42,2.852l8.05,23.979a2.255,2.255,0,0,0,2.854,1.419l4.522-1.516A2.252,2.252,0,0,0,298,78.519ZM284.409,60.946l5.027-1.684.843,2.511-5.027,1.684Zm2.108,6.278-.422-1.256,5.027-1.684.421,1.256Z" transform="translate(-261.116 0)" fill="#ced7d9"/>
    </g>
    <text id="本棚" transform="translate(197 873)" fill="#ced7d9" font-size="10" font-family="HiraginoSans-W6, Hiragino Sans" letter-spacing="0.105em"><tspan x="0" y="0">本棚</tspan></text>
  </g>
</svg>
