<svg xmlns="http://www.w3.org/2000/svg" width="12" height="12.001" viewBox="0 0 12 12.001">
  <path id="前面オブジェクトで型抜き_10" data-name="前面オブジェクトで型抜き 10" d="M-1210-1650a6.007,6.007,0,0,1-6-6,6.007,6.007,0,0,1,6-6,6.007,6.007,0,0,1,6,6A6.007,6.007,0,0,1-1210-1650Zm-.625-4.287V-1653h1.25v-1.285H-1208v-.643h-1.375v-.228l.232-.416H-1208v-.643h-.755L-1207-1659h-1.25l-1.75,2.961-1.75-2.961H-1213l1.756,2.786H-1212v.643h1.149l.226.416v.228H-1212v.643Z" transform="translate(1216 1661.999)" fill="#fff"/>
</svg>
