<svg xmlns="http://www.w3.org/2000/svg" width="38" height="53" viewBox="0 0 38 53">
  <g id="グループ_55" data-name="グループ 55" transform="translate(-36 -723)">
    <text id="ホーム" transform="translate(40 775)" fill="#ced7d9" font-size="10" font-family="HiraginoSans-W6, Hiragino Sans"><tspan x="0" y="0">ホーム</tspan></text>
    <path id="前面オブジェクトで型抜き_2" data-name="前面オブジェクトで型抜き 2" d="M13.809,34H5.58a1.255,1.255,0,0,1-1.329-1.16V19.706a1.255,1.255,0,0,0-1.329-1.16H1.331a1.312,1.312,0,0,1-1.259-.789,1.037,1.037,0,0,1,.3-1.169L18.036.361a1.466,1.466,0,0,1,1.927,0L37.631,16.588a1.037,1.037,0,0,1,.3,1.169,1.313,1.313,0,0,1-1.26.789H34.894a1.255,1.255,0,0,0-1.329,1.16V32.839A1.255,1.255,0,0,1,32.235,34H24.19V27.136a5.191,5.191,0,1,0-10.381,0V34Z" transform="translate(36.001 723)" fill="#ced7d9"/>
  </g>
</svg>
