<svg xmlns="http://www.w3.org/2000/svg" width="20" height="20" viewBox="0 0 20 20">
  <path id="Icon_awesome-baseball-ball" data-name="Icon awesome-baseball-ball" d="M14.862,14.913l1.162-.56A8.781,8.781,0,0,0,17.8,16.808a9.978,9.978,0,0,0,.012-12.48,8.669,8.669,0,0,0-1.758,2.4L14.9,6.159a9.944,9.944,0,0,1,2.049-2.782,9.976,9.976,0,0,0-13.886,0A9.972,9.972,0,0,1,5.106,6.147l-1.157.569a8.7,8.7,0,0,0-1.754-2.4,9.97,9.97,0,0,0,0,12.48,8.69,8.69,0,0,0,1.787-2.46l1.162.56a9.949,9.949,0,0,1-2.077,2.851,9.971,9.971,0,0,0,13.87.008A9.994,9.994,0,0,1,14.862,14.913Zm-9.208-1.29-1.23-.4a8.752,8.752,0,0,0-.024-5.4l1.226-.4A10.06,10.06,0,0,1,5.654,13.623Zm8.724-6.185,1.226.4a8.781,8.781,0,0,0-.024,5.4l-1.23.4a10.059,10.059,0,0,1,.028-6.2Z" transform="translate(0 -0.563)"/>
</svg>
